<svg width="300" height="300" version="1.1" viewBox="0 0 79.375 79.375" xmlns="http://www.w3.org/2000/svg" xmlns:xlink="http://www.w3.org/1999/xlink">
	<g>
		<circle transform="rotate(16.342)" cx="65.019" cy="17.569" r="11.998" fill="#eb6e4b" style="mix-blend-mode:normal"/>
		<g fill="none" stroke="#eb6e4b" stroke-linecap="round" stroke-width="3.9572">
			<path d="m61.756 20.156 1.4094-4.8068" style="mix-blend-mode:normal"/>
			<path d="m72.172 39.213 4.8067 1.4097" style="mix-blend-mode:normal"/>
			<path d="m70.911 27.527 4.3955-2.4023" style="mix-blend-mode:normal"/>
			<path d="m50.072 21.416-2.4018-4.3958" style="mix-blend-mode:normal"/>
		</g>
	</g>
	<g>
		<path d="m31.145 21.104c-6.7174-0.12635-13.011 5.0667-14.162 11.686-0.41024 2.1129-0.33818 4.3175 0.20941 6.3991-6.0932-1.1932-12.626 2.7466-14.413 8.6931-2.0189 5.8396 0.92997 12.824 6.525 15.447 3.726 1.9591 8.0214 1.1576 12.048 1.3235 13.526-0.02553 27.079 0.05105 40.588-0.03828 5.3271-0.31103 9.7799-5.3071 9.4787-10.635-0.04764-5.317-4.7826-10.002-10.1-9.993-1.1305 0.0688-2.1068 0.33093-1.3957-1.0857 0.95956-4.5647-2.4714-9.4224-7.0971-10.038-2.5948-0.43285-5.3612 0.41934-7.263 2.2367-0.07327-6.7181-5.451-12.854-12.101-13.809-0.76535-0.12457-1.5408-0.18726-2.3162-0.18726z" fill="#fff" stroke="#000" stroke-linecap="square" stroke-linejoin="round" stroke-width="3.1068" style="paint-order:normal"/>
	</g>
</svg>
