<svg width="300" height="300" version="1.1" viewBox="0 0 79.375 79.375" xmlns="http://www.w3.org/2000/svg" xmlns:xlink="http://www.w3.org/1999/xlink">
	<path d="m77.67 32.153a17.066 17.066 0 0 1-12.129 1.8855 17.066 17.066 0 0 1-13.06-20.296 17.066 17.066 0 0 1 2.0523-5.1753 17.066 17.066 0 0 0-8.1672 11.174 17.066 17.066 0 0 0 13.06 20.296 17.066 17.066 0 0 0 18.244-7.8841z" fill="#ffd94b" stroke="#ffd94b" stroke-linecap="round" stroke-linejoin="round" stroke-width="2.719" style="mix-blend-mode:normal"/>
	<g>
		<path d="m32.516 21.727c-7.0186-0.13201-13.594 5.2939-14.797 12.21-0.42864 2.2077-0.35335 4.5112 0.2188 6.6861-6.3665-1.2468-13.192 2.8698-15.06 9.083-2.1094 6.1015 0.97168 13.399 6.8177 16.14 3.8932 2.047 8.3811 1.2095 12.588 1.3828 14.133-0.02667 28.293 0.05334 42.408-0.04 5.566-0.32498 10.219-5.5451 9.9039-11.112-0.04978-5.5554-4.9971-10.45-10.553-10.441-1.1812 0.07189-2.2013 0.34577-1.4583-1.1344 1.0026-4.7694-2.5822-9.845-7.4154-10.488-2.7112-0.45226-5.6016 0.43815-7.5887 2.3371-0.07656-7.0195-5.6954-13.431-12.644-14.428-0.79968-0.13016-1.6099-0.19566-2.4201-0.19566z" fill="#fff" stroke="#000" stroke-linecap="square" stroke-linejoin="round" stroke-width="3.2462" style="paint-order:normal"/>
	</g>
</svg>
