<svg width="300" height="300" version="1.1" viewBox="0 0 79.375 79.375" xmlns="http://www.w3.org/2000/svg" xmlns:xlink="http://www.w3.org/1999/xlink">
	<g>
		<path d="m33.529 15.087c-7.3318-0.1379-14.201 5.5301-15.457 12.755-0.44776 2.3062-0.36912 4.7125 0.22856 6.9844-6.6506-1.3024-13.781 2.9979-15.732 9.4882-2.2035 6.3737 1.015 13.997 7.1219 16.86 4.0668 2.1383 8.7551 1.2635 13.149 1.4445 14.763-0.02786 29.555 0.05571 44.3-0.04178 5.8144-0.33947 10.674-5.7925 10.346-11.607-0.052-5.8033-5.2201-10.917-11.024-10.907-1.2339 0.0751-2.2995 0.3612-1.5234-1.185 1.0473-4.9822-2.6974-10.284-7.7463-10.956-2.8321-0.47244-5.8515 0.4577-7.9273 2.4413-0.079975-7.3326-5.9496-14.03-13.208-15.072-0.83535-0.13596-1.6817-0.20439-2.528-0.20439z" fill="#fff" stroke="#000" stroke-linecap="square" stroke-linejoin="round" stroke-width="3.391" style="paint-order:normal"/>
	</g>
</svg>
