<svg width="300" height="300" version="1.1" viewBox="0 0 79.375 79.375" xmlns="http://www.w3.org/2000/svg" xmlns:xlink="http://www.w3.org/1999/xlink">
	<g stroke="#000" stroke-linecap="square" stroke-linejoin="round">
		<path d="m45.897 15.984c-5.3592-0.10081-10.38 4.0423-11.299 9.3231-0.3273 1.6857-0.26981 3.4446 0.16707 5.1053-4.8613-0.95198-10.073 2.1913-11.499 6.9355-1.6107 4.6589 0.74194 10.231 5.2058 12.324 2.9727 1.563 6.3996 0.92354 9.6117 1.0559 10.791-0.02037 21.604 0.04071 32.382-0.03053 4.25-0.24814 7.8026-4.2341 7.5623-8.4845-0.03801-4.242-3.8156-7.9796-8.0578-7.9725-0.90192 0.0549-1.6808 0.26402-1.1135-0.86622 0.76556-3.6418-1.9717-7.5173-5.6622-8.0083-2.0702-0.34533-4.2772 0.33456-5.7945 1.7845-0.05846-5.3598-4.3489-10.255-9.6547-11.017-0.61061-0.09938-1.2292-0.1494-1.8479-0.1494z" fill="#4d4d4d" stroke-width="2.4787" style="paint-order:normal"/>
		<path d="m29.285 22.435c-6.3436-0.11932-12.287 4.7848-13.374 11.036-0.38742 1.9954-0.31937 4.0773 0.19776 6.0431-5.7542-1.1269-11.924 2.5938-13.611 8.2095-1.9065 5.5147 0.87823 12.11 6.162 14.588 3.5187 1.8501 7.5751 1.0932 11.377 1.2498 12.773-0.02412 25.572 0.0482 38.33-0.03615 5.0307-0.29372 9.2358-5.0119 8.9514-10.043-0.045-5.0212-4.5165-9.4454-9.5379-9.437-1.0676 0.06498-1.9896 0.31252-1.3181-1.0253 0.90618-4.3107-2.3339-8.8981-6.7023-9.4794-2.4504-0.40877-5.0629 0.39601-6.8589 2.1123-0.0692-6.3444-5.1477-12.139-11.428-13.04-0.72277-0.11764-1.455-0.17684-2.1873-0.17684z" fill="#fff" stroke-width="2.9344" style="paint-order:normal"/>
	</g>
</svg>
