<svg width="300" height="300" version="1.1" viewBox="0 0 79.375 79.375" xmlns="http://www.w3.org/2000/svg" xmlns:xlink="http://www.w3.org/1999/xlink">
	<g stroke="#000" stroke-linecap="square" stroke-linejoin="round">
		<path d="m45.72 2.7726c-5.3665-0.10096-10.394 4.0478-11.314 9.3358-0.32774 1.688-0.27018 3.4493 0.1673 5.1123-4.8679-0.95328-10.087 2.1943-11.515 6.9449-1.6129 4.6653 0.74295 10.245 5.2129 12.341 2.9767 1.5651 6.4083 0.92479 9.6248 1.0573 10.806-0.0204 21.633 0.04076 32.426-0.03058 4.2558-0.24848 7.8132-4.2399 7.5726-8.496-0.03808-4.2477-3.8208-7.9905-8.0687-7.9834-0.90315 0.05498-1.6831 0.26438-1.115-0.8674 0.7666-3.6467-1.9744-7.5275-5.6699-8.0192-2.073-0.3458-4.283 0.33501-5.8024 1.7869-0.058547-5.3671-4.3548-10.269-9.6678-11.032-0.61144-0.099501-1.2309-0.14961-1.8504-0.14961z" fill="#4d4d4d" stroke-width="2.4822" style="paint-order:normal"/>
		<path d="m29.084 9.2319c-6.3523-0.11949-12.304 4.7913-13.392 11.051-0.38794 1.9981-0.31981 4.0829 0.19803 6.0514-5.7621-1.1284-11.94 2.5974-13.63 8.2206-1.9091 5.5222 0.87943 12.127 6.1704 14.608 3.5235 1.8526 7.5854 1.0947 11.393 1.2515 12.791-0.02416 25.607 0.04826 38.382-0.03619 5.0376-0.29412 9.2484-5.0187 8.9636-10.057-0.04504-5.028-4.5227-9.4583-9.5509-9.4499-1.0691 0.06507-1.9923 0.31294-1.3199-1.0267 0.90741-4.3166-2.337-8.9103-6.7114-9.4923-2.4538-0.40932-5.0698 0.39655-6.8683 2.1152-0.069295-6.353-5.1547-12.156-11.444-13.058-0.72376-0.1178-1.457-0.17709-2.1903-0.17709z" fill="#fff" stroke-width="2.9382" style="paint-order:normal"/>
	</g>
	<g display="none" fill="none" stroke="#000" stroke-linecap="round" stroke-width="2.1564">
		<path d="m29.265 49.572-0.35071 0.71907" display="inline"/>
		<path d="m35.13 51.87-1.0525 2.1579" display="inline"/>
		<path d="m42.48 50.386-0.65253 1.3379" display="inline"/>
		<path d="m39.796 55.889-1.0525 2.1579" display="inline"/>
		<path d="m27.653 52.876-1.0525 2.1579" display="inline"/>
		<path d="m32.46 57.346-0.4595 0.94212" display="inline"/>
	</g>
	<g fill="none" stroke="#000" stroke-linecap="round" stroke-width="3.3221">
		<path d="m21.314 55.253-1.9997 3.7766"/>
		<path d="m32.208 55.284-3.1607 6.19"/>
		<path d="m43.142 55.248-5.314 9.8346"/>
		<path d="m16.497 64.095-4.0111 7.6552"/>
		<path d="m25.898 66.829-4.9668 9.4835"/>
		<path d="m35.177 70.148-1.9781 3.6784"/>
	</g>
</svg>
