<svg width="300" height="300" version="1.1" viewBox="0 0 79.375 79.375" xmlns="http://www.w3.org/2000/svg" xmlns:xlink="http://www.w3.org/1999/xlink">
	<g stroke="#000" stroke-linecap="square" stroke-linejoin="round">
		<path d="m45.832 5.4966c-5.371-0.10103-10.403 4.0511-11.324 9.3436-0.32801 1.6894-0.2704 3.4522 0.16744 5.1165-4.872-0.95407-10.095 2.1961-11.524 6.9507-1.6142 4.6692 0.74357 10.253 5.2172 12.351 2.9792 1.5664 6.4136 0.92556 9.6328 1.0582 10.815-0.02041 21.651 0.0408 32.453-0.03059 4.2594-0.24869 7.8197-4.2434 7.5789-8.5031-0.03809-4.2513-3.824-7.9972-8.0755-7.99-0.9039 0.05503-1.6845 0.2646-1.116-0.86812 0.76724-3.6498-1.976-7.5338-5.6746-8.0259-2.0747-0.3461-4.2866 0.33529-5.8072 1.7884-0.058591-5.3716-4.3584-10.278-9.6759-11.041-0.61195-0.099607-1.2319-0.14973-1.8519-0.14973z" fill="#4d4d4d" stroke-width="2.4841" style="paint-order:normal"/>
		<path d="m29.183 11.961c-6.3576-0.11959-12.314 4.7953-13.404 11.06-0.38827 1.9998-0.32007 4.0863 0.19819 6.0564-5.7669-1.1293-11.95 2.5995-13.641 8.2275-1.9107 5.5268 0.88016 12.137 6.1756 14.62 3.5265 1.8542 7.5918 1.0956 11.402 1.2526 12.802-0.02417 25.628 0.0483 38.414-0.03622 5.0418-0.29437 9.2561-5.0229 8.9711-10.065-0.0451-5.0322-4.5264-9.4662-9.5588-9.4577-1.0699 0.06512-1.994 0.3132-1.321-1.0276 0.90817-4.3202-2.339-8.9177-6.717-9.5002-2.4558-0.40966-5.074 0.39688-6.874 2.1169-0.069358-6.3583-5.159-12.166-11.453-13.069-0.72436-0.1179-1.4582-0.17723-2.1921-0.17723z" fill="#fff" stroke-width="2.9408" style="paint-order:normal"/>
	</g>
	<path d="m21.951 47.145h6.6005l-3.2211 10.421h7.1487l-13.16 18.012 4.2045-13.7-5.6665-0.15831z" fill="#eb6e4b" stroke="#eb6e4b" stroke-linecap="round" stroke-linejoin="round" stroke-width="1.2537"/>
	<g display="none">
		<path d="m29.773 44.127h6.0712l-3.4897 6.0444h3.7023l-10.536 12.193 3.0238-8.6462h-3.6616z" fill="#eb6e4b"/>
	</g>
</svg>
