<svg width="300" height="300" version="1.1" viewBox="0 0 79.375 79.375" xmlns="http://www.w3.org/2000/svg" xmlns:xlink="http://www.w3.org/1999/xlink">
	<g fill="none" stroke="#000" stroke-width="5.035">
		<g stroke-linecap="round">
			<path d="m39.639 30.18 2e-6 -26.644"/>
			<path d="m27.667 8.1808 11.973 11.973 11.973-11.973"/>
			<path d="m39.802 49.165-2e-6 26.644"/>
			<path d="m51.775 71.165-11.973-11.973-11.973 11.973"/>
			<path d="m47.901 34.856 23.074-13.322"/>
			<path d="m60.967 13.488-4.3823 16.355 16.355 4.3823"/>
			<path d="m31.541 44.49-23.074 13.322"/>
			<path d="m18.475 65.858 4.3823-16.355-16.355-4.3823"/>
			<path d="m47.982 44.348 23.074 13.322"/>
			<path d="m73.021 44.98-16.355 4.3823 4.3823 16.355"/>
			<path d="m31.459 34.997-23.074-13.322"/>
			<path d="m6.4209 34.366 16.355-4.3823-4.3823-16.355"/>
		</g>
		<path d="m31.459 34.997 8.1799-4.8168 8.2614 4.6757 0.08148 9.4924-8.1799 4.8168-8.2614-4.6757-0.08148-9.4924"/>
	</g>
</svg>
